<svg id="Capa_1" enable-background="new 0 0 512 512" height="512" viewBox="0 0 512 512" width="512" xmlns="http://www.w3.org/2000/svg"><g><g fill="#fabe2c"><path d="m432 127c-3.839 0-7.678-1.465-10.606-4.394-5.858-5.857-5.858-15.355 0-21.213l48-48c5.857-5.857 15.355-5.857 21.213 0s5.858 15.355 0 21.213l-48 48c-2.929 2.929-6.768 4.394-10.607 4.394z"/><path d="m495.995 271.004c-1.854 0-3.739-.346-5.566-1.077l-40-16c-7.692-3.076-11.433-11.806-8.356-19.498 3.077-7.69 11.806-11.433 19.498-8.355l40 16c7.692 3.076 11.433 11.806 8.356 19.498-2.345 5.864-7.979 9.432-13.932 9.432z"/><path d="m463.989 183.004c-6.722 0-12.837-4.55-14.541-11.366-2.009-8.036 2.877-16.181 10.914-18.189l32-8c8.037-2.012 16.181 2.876 18.19 10.914 2.009 8.036-2.877 16.181-10.914 18.189l-32 8c-1.221.305-2.445.452-3.649.452z"/></g><path d="m80 127c-3.839 0-7.678-1.465-10.606-4.394l-48-48c-5.858-5.857-5.858-15.355 0-21.213 5.857-5.857 15.355-5.857 21.213 0l48 48c5.858 5.857 5.858 15.355 0 21.213-2.929 2.929-6.768 4.394-10.607 4.394z" fill="#fed843"/><path d="m16.005 271.004c-5.954 0-11.586-3.568-13.932-9.433-3.077-7.692.665-16.422 8.356-19.498l40-16c7.693-3.079 16.421.664 19.498 8.355 3.077 7.692-.665 16.422-8.356 19.498l-40 16c-1.827.732-3.712 1.078-5.566 1.078z" fill="#fed843"/><path d="m48.011 183.004c-1.205 0-2.428-.146-3.649-.452l-32-8c-8.037-2.009-12.923-10.153-10.914-18.189 2.01-8.036 10.152-12.924 18.19-10.914l32 8c8.037 2.009 12.923 10.153 10.914 18.189-1.704 6.815-7.819 11.366-14.541 11.366z" fill="#fed843"/><path d="m398.16 172.67-78.67 68.33h-126.98l-78.67-68.33c-.01-.002-.021-.003-.031-.005l-24.799 10.865 23.26 243.67c0 .05.01.09.02.14.36 3.75 2.14 7.25 4.98 9.771l80.866 71.375c1.402 1.237 3.039 2.178 4.814 2.765 1.52.5 3.1.75 4.69.75h96.72c1.59 0 3.17-.25 4.69-.75 1.926-.633 3.703-1.653 5.223-2.996l80.457-71.144c2.85-2.53 4.63-6.051 4.99-9.811 0-.01 0-.01 0-.02l23.27-243.75z" fill="#e62e6b"/><path d="m256 241v271h48.36c1.59 0 3.17-.25 4.69-.75 1.926-.633 3.703-1.653 5.223-2.996l80.457-71.144c2.82-2.511 4.6-5.99 4.98-9.71 0-.03.01-.07.01-.101 0-.01 0-.01 0-.02l23.27-243.75-103.5 57.471z" fill="#b32453"/><path d="m172.755 255.055.267-.203c-.036-.385-.206-.116-.267.203z" fill="#f66"/><path d="m256 226.33-84.81 29.67 22.04 248.16s5.33 5.229 7.83 6.31c0 0 2.833 1.554 6.58 1.53h96.72c4.108 0 6.167-1.204 6.167-1.204 3.728-1.86 8.232-6.509 8.232-6.509l21.331-248.287z" fill="#f66"/><path d="m256 512h48.36c4.108 0 6.167-1.204 6.167-1.204 3.728-1.859 8.232-6.509 8.232-6.509l21.331-248.287-68.021-24h-16.069z" fill="#e62e6b"/><path d="m419.48 174.35c-.09-.12-152.33-169.38-152.33-169.38-2.84-3.16-6.9-4.97-11.15-4.97s-8.31 1.81-11.15 4.97c0 0-152.24 169.261-152.33 169.38-2.26 2.681-3.42 5.92-3.51 9.181l82.18 72.469h168.9l82.9-72.47c-.09-3.26-1.25-6.5-3.51-9.18z" fill="#f66"/><path d="m340.09 256 82.9-72.47c-.09-3.261-1.25-6.5-3.51-9.181-.09-.119-152.33-169.379-152.33-169.379-2.84-3.16-6.9-4.97-11.15-4.97v256z" fill="#e62e6b"/><path d="m256 0-84.81 256h168.9z" fill="#e62e6b"/><path d="m340.09 256-84.09-256v256z" fill="#b32453"/></g></svg>